<?xml version='1.0' encoding='iso-8859-1'?>
<svg version="1.1" xmlns="http://www.w3.org/2000/svg" viewBox="0 0 25.99 25.99" xmlns:xlink="http://www.w3.org/1999/xlink" enable-background="new 0 0 25.99 25.99">
  <path fill-rule="evenodd" d="m21.319,24.322l-1.414-1.416c2.529-2.549 4.107-6.033 4.107-9.936 0-3.857-1.578-7.336-4.107-9.891l1.414-1.412c2.9,2.928 4.671,6.883 4.671,11.303 0,4.419-1.771,8.426-4.671,11.352zm-2.825-2.826l-1.415-1.414c1.809-1.809 2.925-4.336 2.925-7.111 0-2.725-1.116-5.256-2.925-7.063l1.415-1.416c2.156,2.186 3.515,5.188 3.515,8.479 0,3.341-1.359,6.343-3.515,8.525zm-13.641-3.553l-4.853,.034v-9.932h4.908c0,0 10.072-7.977 10.09-8.045-0.014,0.049 0,25.99 0,25.99l-10.145-8.047zm.814-7.972l-3.663-.006v6.029l3.72-.023 7.272,5.852v-17.718l-7.329,5.866z"/>
</svg>
